# xmcd
#
# Track frame offsets:
#	150
#	16416
#	31380
#	47049
#	62853
#	132510
#	152848
#	183247
#
# Disc length: 2688 seconds
#
# Revision: 0
# Processed by: cddbd v1.4PL0 Copyright (c) Steve Scherf et al.
# Submitted via: dBpowerAMP V4.0
#
DISCID=690a7e08
DTITLE=Ray Charles - It's A Blues Thing
DYEAR=1995
DGENRE=Blues
TTITLE0=Eleanor Rigby
TTITLE1=Lets Go Get Stoned
TTITLE2=Soul Segue
TTITLE3=Cryin Time/ You Are My Sunshine
TTITLE4=Esther Phillips Guest Medley
TTITLE5=The Girl I Used To Know
TTITLE6=Ode To Billy Jo
TTITLE7=I Won't Leave 'Til I Get What I Come For
EXTD=
EXTT0=
EXTT1=
EXTT2=
EXTT3=
EXTT4=
EXTT5=
EXTT6=
EXTT7=
PLAYORDER=
